<svg xmlns="http://www.w3.org/2000/svg" viewBox="0 0 32 32" role="img" aria-label="Drecksau">
  <title>Drecksau</title>
  <!-- Ears -->
  <path d="M7 9.5 5.5 3.5 11.5 6.5Z" fill="#e0819a" />
  <path d="M25 9.5 26.5 3.5 20.5 6.5Z" fill="#e0819a" />
  <!-- Head -->
  <circle cx="16" cy="17" r="11.5" fill="#f2a3b6" />
  <!-- Mud splotches - it is a Drecksau, after all -->
  <path d="M8.5 10.5c2.2-1.4 4.2.6 3 2.3-1.2 1.7-4.1 1-4.4-.6-.1-.7.4-1.3 1.4-1.7Z" fill="#7a5238" />
  <path d="M23.6 20.8c1.9-.6 3.1 1.5 1.7 2.7-1.4 1.2-3.7.1-3.4-1.4.1-.7.7-1.1 1.7-1.3Z" fill="#7a5238" />
  <circle cx="10" cy="23.5" r="1.7" fill="#7a5238" />
  <!-- Eyes -->
  <circle cx="11.6" cy="15" r="1.5" fill="#43262f" />
  <circle cx="20.4" cy="15" r="1.5" fill="#43262f" />
  <!-- Snout -->
  <ellipse cx="16" cy="21.2" rx="6" ry="4.4" fill="#e0819a" />
  <ellipse cx="13.9" cy="21.2" rx="1.3" ry="1.9" fill="#43262f" />
  <ellipse cx="18.1" cy="21.2" rx="1.3" ry="1.9" fill="#43262f" />
</svg>
